<svg width="43" height="43" viewBox="0 0 43 43" fill="none" xmlns="http://www.w3.org/2000/svg">
<rect width="43" height="43" fill="white"/>
<path d="M34 30.5C34 30.9166 33.8047 31.4002 33.2712 31.9338C32.7338 32.4714 31.9057 33.0015 30.8027 33.4681C28.6007 34.3997 25.4891 35 22 35C18.5109 35 15.3993 34.3997 13.1973 33.4681C12.0943 33.0015 11.2662 32.4714 10.7288 31.9338C10.1953 31.4002 10 30.9166 10 30.5C10 30.0834 10.1953 29.5998 10.7288 29.0662C11.2662 28.5286 12.0943 27.9985 13.1973 27.5319C15.3993 26.6003 18.5109 26 22 26C25.4891 26 28.6007 26.6003 30.8027 27.5319C31.9057 27.9985 32.7338 28.5286 33.2712 29.0662C33.8047 29.5998 34 30.0834 34 30.5Z" fill="white" stroke="#4B4B4B" stroke-width="2"/>
<path d="M30 17.1636C30 23.2727 23.2308 30.9091 22 30.9091C20.7692 30.9091 14 23.2727 14 17.1636C14 12.1027 17.5817 8 22 8C26.4183 8 30 12.1027 30 17.1636Z" fill="#4B4B4B" stroke="white"/>
<path d="M22 17.0909C23.1046 17.0909 24 16.1955 24 15.0909C24 13.9863 23.1046 13.0909 22 13.0909C20.8954 13.0909 20 13.9863 20 15.0909C20 16.1955 20.8954 17.0909 22 17.0909Z" fill="white"/>
</svg>
