<svg width="43" height="43" viewBox="0 0 43 43" fill="none" xmlns="http://www.w3.org/2000/svg">
<rect width="43" height="43" fill="white"/>
<path d="M21.5014 34L10.0474 22.7597C9.13374 21.8631 8.52464 20.8207 8.22009 19.6325C7.92297 18.4443 7.92668 17.2634 8.23123 16.0899C8.53578 14.909 9.14117 13.8811 10.0474 13.0064C10.9759 12.1098 12.0344 11.5157 13.2229 11.2242C14.4188 10.9253 15.611 10.9253 16.7995 11.2242C17.9954 11.523 19.0576 12.1171 19.9861 13.0064L21.5014 14.4497L23.0167 13.0064C23.9527 12.1171 25.0149 11.523 26.2034 11.2242C27.3918 10.9253 28.5803 10.9253 29.7688 11.2242C30.9647 11.5157 32.0269 12.1098 32.9554 13.0064C33.8617 13.8811 34.467 14.909 34.7716 16.0899C35.0761 17.2634 35.0761 18.4443 34.7716 19.6325C34.4745 20.8207 33.8691 21.8631 32.9554 22.7597L21.5014 34Z" fill="#EB3223"/>
</svg>
