<svg width="43" height="43" viewBox="0 0 43 43" fill="none" xmlns="http://www.w3.org/2000/svg">
<rect width="43" height="43" fill="white"/>
<rect x="5" y="11" width="33.9462" height="22.7059" fill="white" stroke="#4B4B4B" stroke-width="2"/>
<mask id="path-3-inside-1_10_170" fill="white">
<path fill-rule="evenodd" clip-rule="evenodd" d="M15.4118 32.7059H38C35.1911 24.2202 31.1601 18.902 26.6817 18.902C24.6125 18.902 22.6388 20.0373 20.837 22.0959C19.4222 20.7707 17.9067 20.0523 16.3308 20.0523C12.2491 20.0523 8.57283 24.8717 6 32.5727V32.7059H15.4118V32.7059Z"/>
</mask>
<path fill-rule="evenodd" clip-rule="evenodd" d="M15.4118 32.7059H38C35.1911 24.2202 31.1601 18.902 26.6817 18.902C24.6125 18.902 22.6388 20.0373 20.837 22.0959C19.4222 20.7707 17.9067 20.0523 16.3308 20.0523C12.2491 20.0523 8.57283 24.8717 6 32.5727V32.7059H15.4118V32.7059Z" fill="#4B4B4B"/>
<path d="M38 32.7059V33.7059H39.3844L38.9493 32.3916L38 32.7059ZM15.4118 32.7059H14.4118V33.7059H15.4118V32.7059ZM20.837 22.0959L20.1534 22.8258L20.9083 23.5329L21.5895 22.7545L20.837 22.0959ZM6 32.5727L5.05153 32.2559L5 32.4101V32.5727H6ZM6 32.7059H5V33.7059H6V32.7059ZM15.4118 32.7059H16.4118V31.7059H15.4118V32.7059ZM38 31.7059H15.4118V33.7059H38V31.7059ZM26.6817 19.902C28.4933 19.902 30.3635 20.9759 32.1871 23.2478C34.0037 25.511 35.6669 28.8398 37.0507 33.0201L38.9493 32.3916C37.5242 28.0862 35.7674 24.5131 33.7468 21.9958C31.733 19.4871 29.3486 17.902 26.6817 17.902V19.902ZM21.5895 22.7545C23.285 20.8174 25.0072 19.902 26.6817 19.902V17.902C24.2177 17.902 21.9926 19.2573 20.0845 21.4373L21.5895 22.7545ZM16.3308 21.0523C17.5811 21.0523 18.8639 21.6179 20.1534 22.8258L21.5206 21.3661C19.9804 19.9234 18.2323 19.0523 16.3308 19.0523V21.0523ZM6.94847 32.8896C8.21397 29.1017 9.72904 26.0937 11.3775 24.053C13.0324 22.0043 14.7151 21.0523 16.3308 21.0523V19.0523C13.8648 19.0523 11.6685 20.51 9.82167 22.7962C7.96833 25.0906 6.35886 28.3428 5.05153 32.2559L6.94847 32.8896ZM7 32.7059V32.5727H5V32.7059H7ZM15.4118 31.7059H6V33.7059H15.4118V31.7059ZM16.4118 32.7059V32.7059H14.4118V32.7059H16.4118Z" fill="white" mask="url(#path-3-inside-1_10_170)"/>
<circle cx="30.5" cy="16.2059" r="2.5" fill="#4B4B4B"/>
</svg>
