<svg width="43" height="43" viewBox="0 0 43 43" fill="none" xmlns="http://www.w3.org/2000/svg">
<rect width="43" height="43" fill="#F2F2F2"/>
<path d="M11.4756 32.3651L22.6808 24.1894L14.7868 21.3531L11.4756 32.3651Z" fill="#F2F2F2"/>
<path d="M11.4756 32.3651L22.6808 24.1894L14.7868 21.3531L11.4756 32.3651Z" fill="#F2F2F2"/>
<path d="M11.4756 32.3651L22.6808 24.1894L14.7868 21.3531L11.4756 32.3651Z" stroke="#3560F6" stroke-width="2" stroke-linejoin="round"/>
<path d="M35.2624 9.53146L19.739 35.8413L14.7868 21.353L35.2624 9.53146Z" fill="#F2F2F2"/>
<path d="M35.2624 9.53146L19.739 35.8413L14.7868 21.353L35.2624 9.53146Z" fill="#F2F2F2"/>
<path d="M35.2624 9.53146L19.739 35.8413L14.7868 21.353L35.2624 9.53146Z" stroke="#3560F6" stroke-width="2" stroke-linejoin="round"/>
<path d="M35.2624 9.53146L5.59542 15.2844L14.7868 21.353L35.2624 9.53146Z" fill="#F2F2F2"/>
<path d="M35.2624 9.53146L5.59542 15.2844L14.7868 21.353L35.2624 9.53146Z" fill="#F2F2F2"/>
<path d="M35.2624 9.53146L5.59542 15.2844L14.7868 21.353L35.2624 9.53146Z" stroke="#3560F6" stroke-width="2" stroke-linejoin="round"/>
</svg>
