<svg width="43" height="43" viewBox="0 0 43 43" fill="none" xmlns="http://www.w3.org/2000/svg">
<rect width="43" height="43" fill="white"/>
<path fill-rule="evenodd" clip-rule="evenodd" d="M22 6C17.5817 6 14 9.58172 14 14V17H11V22V23V28C11 30.7614 13.2386 33 16 33H28C30.7614 33 33 30.7614 33 28V23V22V17H30V14C30 9.58172 26.4183 6 22 6ZM27 17V14C27 11.2386 24.7614 9 22 9C19.2386 9 17 11.2386 17 14V17H27ZM25 25C25 26.6569 23.6569 28 22 28C20.3431 28 19 26.6569 19 25C19 23.3431 20.3431 22 22 22C23.6569 22 25 23.3431 25 25Z" fill="#4B4B4B"/>
</svg>
