<svg width="43" height="43" viewBox="0 0 43 43" fill="none" xmlns="http://www.w3.org/2000/svg">
<rect width="43" height="43" fill="white"/>
<rect x="10" y="11.7199" width="21" height="21" fill="white" stroke="#4B4B4B" stroke-width="2"/>
<mask id="path-3-outside-1_10_163" maskUnits="userSpaceOnUse" x="12.8444" y="3.43219" width="26.833" height="28.2451" fill="black">
<rect fill="white" x="12.8444" y="3.43219" width="26.833" height="28.2451"/>
<path fill-rule="evenodd" clip-rule="evenodd" d="M18.2019 21.22L17.4015 27.7436L23.8051 26.2628L18.2019 21.22ZM18.2019 21.22L23.8051 26.2628L38.2132 10.2539L32.6101 5.21099L18.2019 21.22Z"/>
</mask>
<path fill-rule="evenodd" clip-rule="evenodd" d="M18.2019 21.22L17.4015 27.7436L23.8051 26.2628L18.2019 21.22ZM18.2019 21.22L23.8051 26.2628L38.2132 10.2539L32.6101 5.21099L18.2019 21.22Z" fill="white"/>
<path d="M17.4015 27.7436L16.9052 27.6827L16.8182 28.3917L17.5141 28.2308L17.4015 27.7436ZM18.2019 21.22L18.5364 20.8483L17.8226 20.2059L17.7057 21.1591L18.2019 21.22ZM23.8051 26.2628L23.9177 26.75L24.8534 26.5336L24.1396 25.8912L23.8051 26.2628ZM23.8051 26.2628L23.4706 26.6345L23.8422 26.9689L24.1767 26.5973L23.8051 26.2628ZM18.2019 21.22L17.8303 20.8855L17.4958 21.2571L17.8675 21.5916L18.2019 21.22ZM38.2132 10.2539L38.5849 10.5883L38.9194 10.2167L38.5477 9.88221L38.2132 10.2539ZM32.6101 5.21099L32.9446 4.83935L32.573 4.50487L32.2385 4.87651L32.6101 5.21099ZM17.8977 27.8045L18.6982 21.2809L17.7057 21.1591L16.9052 27.6827L17.8977 27.8045ZM23.6924 25.7757L17.2888 27.2565L17.5141 28.2308L23.9177 26.75L23.6924 25.7757ZM17.8674 21.5916L23.4706 26.6345L24.1396 25.8912L18.5364 20.8483L17.8674 21.5916ZM24.1396 25.8912L18.5364 20.8483L17.8675 21.5916L23.4706 26.6345L24.1396 25.8912ZM37.8416 9.91937L23.4334 25.9283L24.1767 26.5973L38.5849 10.5883L37.8416 9.91937ZM32.2756 5.58264L37.8788 10.6255L38.5477 9.88221L32.9446 4.83935L32.2756 5.58264ZM18.5736 21.5544L32.9818 5.54548L32.2385 4.87651L17.8303 20.8855L18.5736 21.5544Z" fill="white" mask="url(#path-3-outside-1_10_163)"/>
<rect x="23.7865" y="25.9098" width="7.03827" height="21.0379" transform="rotate(-138.013 23.7865 25.9098)" fill="#4B4B4B" stroke="white" stroke-width="0.5"/>
<path d="M23.2809 26.1274L17.6931 27.4196L18.3916 21.727L23.2809 26.1274Z" fill="#4B4B4B" stroke="white" stroke-width="0.5"/>
<line x1="23.1933" y1="21.3658" x2="33.279" y2="10.1595" stroke="white"/>
</svg>
