<svg width="43" height="43" viewBox="0 0 43 43" fill="none" xmlns="http://www.w3.org/2000/svg">
<rect width="43" height="43" fill="white"/>
<path fill-rule="evenodd" clip-rule="evenodd" d="M15 7H17V13H19V7.53513C20.1956 8.22675 21 9.51944 21 11V16C21 17.8638 19.7252 19.4299 18 19.874V37H14V19.874C12.2748 19.4299 11 17.8638 11 16V11C11 9.51944 11.8044 8.22675 13 7.53513V13H15V7Z" fill="#4B4B4B"/>
<path fill-rule="evenodd" clip-rule="evenodd" d="M28.2831 7.61204C28.5528 6.24891 29.9354 5.72202 31 6.13973V18V29.2538V37H28V27.3801L25.9406 26.0938C25.2361 25.6538 24.8769 24.8241 25.0381 24.0092L28.2831 7.61204Z" fill="#4B4B4B"/>
</svg>
